<svg xmlns="http://www.w3.org/2000/svg" xmlns:xlink="http://www.w3.org/1999/xlink" viewBox="0 0 208.49 198.74"><defs><style>.cls-1{fill:none;}.cls-2{isolation:isolate;}.cls-3{clip-path:url(#clip-path);}.cls-4{fill:#001526;}.cls-5{fill:#a3b8d7;}.cls-6{mix-blend-mode:color-burn;}.cls-7{fill:silver;}.cls-8{fill:#8c8c8c;}.cls-9{fill:#b9b9b9;}.cls-10{fill:#bbb;}.cls-11{fill:#bcbcbc;}.cls-12{fill:#c2c2c2;}.cls-13{fill:#c1c1c1;}.cls-14{fill:gray;}.cls-15{fill:#adadad;}.cls-16{fill:#bebebe;}.cls-17{fill:#a3a3a3;}.cls-18{fill:#b3b3b3;}.cls-19{fill:#b4b4b4;}.cls-20{fill:#c5c5c5;}.cls-21{fill:#a8a8a8;}.cls-22{fill:#b6b6b6;}.cls-23{fill:#c6c6c6;}.cls-24{fill:#8a8a8a;}.cls-25{fill:#b1b1b1;}.cls-26{fill:#919191;}.cls-27{fill:#aeaeae;}.cls-28{fill:#a9a9a9;}.cls-29{fill:#949494;}.cls-30{fill:#9e9e9e;}.cls-31{fill:#b7b7b7;}.cls-32{fill:#989898;}.cls-33{fill:#a2a2a2;}.cls-34{fill:#aaa;}.cls-35{fill:#939393;}.cls-36{fill:#9d9d9d;}.cls-37{fill:#afafaf;}.cls-38{fill:#9a9a9a;}.cls-39{fill:#a4a4a4;}.cls-40{fill:#999;}.cls-41{fill:#818181;}.cls-42{fill:#909090;}.cls-43{fill:#a5a5a5;}.cls-44{fill:#858585;}.cls-45{fill:#868686;}.cls-46{fill:#8b8b8b;}.cls-47{fill:#9f9f9f;}.cls-48{fill:#7d7d7d;}.cls-49{fill:#787878;}.cls-50{fill:#727272;}.cls-51{fill:#7c7c7c;}</style><clipPath id="clip-path" transform="translate(14.18 9.28)"><rect class="cls-1" width="180" height="180" transform="translate(180 180) rotate(180)"/></clipPath></defs><g class="cls-2"><g id="Layer_2" data-name="Layer 2"><g id="Layer_1-2" data-name="Layer 1"><g class="cls-3"><rect class="cls-4" x="10.99" y="5.82" width="186.56" height="186.56"/><rect class="cls-5" x="10.99" y="5.82" width="186.56" height="186.56"/><g class="cls-6"><polygon class="cls-7" points="119.73 198.74 119.73 181.46 134.69 190.09 119.73 198.74"/><polygon class="cls-8" points="208.5 182.05 194.56 190.09 208.5 198.14 208.5 182.05"/><polygon class="cls-9" points="179.59 198.74 179.59 181.46 194.56 190.09 179.59 198.74"/><polygon class="cls-10" points="164.63 190.09 179.59 181.46 179.59 198.74 164.63 190.09"/><polygon class="cls-11" points="149.66 198.74 149.66 181.46 164.63 190.09 149.66 198.74"/><polygon class="cls-12" points="134.69 190.09 149.66 181.46 149.66 198.74 134.69 190.09"/><polygon class="cls-13" points="104.76 190.09 119.73 181.46 119.73 198.74 104.76 190.09"/><polygon class="cls-14" points="208.5 180.86 194.56 172.81 194.56 190.09 208.5 182.05 208.5 180.86"/><polygon class="cls-15" points="179.59 181.46 194.56 172.81 194.56 190.09 179.59 181.46"/><polygon class="cls-11" points="164.63 190.09 164.63 172.81 179.59 181.46 164.63 190.09"/><polygon class="cls-11" points="149.66 181.46 164.63 172.81 164.63 190.09 149.66 181.46"/><polygon class="cls-10" points="134.69 190.09 134.69 172.81 149.66 181.46 134.69 190.09"/><polygon class="cls-9" points="119.73 181.46 134.69 172.81 134.69 190.09 119.73 181.46"/><polygon class="cls-10" points="104.76 172.81 119.73 164.17 119.73 181.46 104.76 172.81"/><polygon class="cls-16" points="104.76 190.09 104.76 172.81 119.73 181.46 104.76 190.09"/><polygon class="cls-14" points="208.5 164.77 194.56 172.81 208.5 180.86 208.5 164.77"/><polygon class="cls-17" points="179.59 181.46 179.59 164.17 194.56 172.81 179.59 181.46"/><polygon class="cls-11" points="164.63 172.81 179.59 164.17 179.59 181.46 164.63 172.81"/><polygon class="cls-9" points="149.66 181.46 149.66 164.17 164.63 172.81 149.66 181.46"/><polygon class="cls-18" points="134.69 172.81 149.66 164.17 149.66 181.46 134.69 172.81"/><polygon class="cls-9" points="119.73 181.46 119.73 164.17 134.69 172.81 119.73 181.46"/><polygon class="cls-19" points="104.76 172.81 104.76 155.53 119.73 164.17 104.76 172.81"/><polygon class="cls-13" points="89.8 181.46 104.76 172.81 104.76 190.09 89.8 181.46"/><polygon class="cls-20" points="89.8 198.74 89.8 181.46 104.76 190.09 89.8 198.74"/><polygon class="cls-8" points="208.5 163.58 194.56 155.53 194.56 172.81 208.5 164.77 208.5 163.58"/><polygon class="cls-21" points="179.59 164.17 194.56 155.53 194.56 172.81 179.59 164.17"/><polygon class="cls-10" points="164.63 172.81 164.63 155.53 179.59 164.17 164.63 172.81"/><polygon class="cls-10" points="149.66 164.17 164.63 155.53 164.63 172.81 149.66 164.17"/><polygon class="cls-9" points="134.69 172.81 134.69 155.53 149.66 164.17 134.69 172.81"/><polygon class="cls-9" points="119.73 164.17 134.69 155.53 134.69 172.81 119.73 164.17"/><polygon class="cls-22" points="89.8 164.17 104.76 155.53 104.76 172.81 89.8 164.17"/><polygon class="cls-10" points="89.8 181.46 89.8 164.17 104.76 172.81 89.8 181.46"/><polygon class="cls-23" points="74.83 190.09 89.8 181.46 89.8 198.74 74.83 190.09"/><polygon class="cls-24" points="208.5 147.49 194.56 155.53 208.5 163.58 208.5 147.49"/><polygon class="cls-25" points="179.59 164.17 179.59 146.89 194.56 155.53 179.59 164.17"/><polygon class="cls-15" points="164.63 155.53 179.59 146.89 179.59 164.17 164.63 155.53"/><polygon class="cls-10" points="149.66 164.17 149.66 146.89 164.63 155.53 149.66 164.17"/><polygon class="cls-10" points="134.69 155.53 149.66 146.89 149.66 164.17 134.69 155.53"/><polygon class="cls-16" points="119.73 164.17 119.73 146.89 134.69 155.53 119.73 164.17"/><polygon class="cls-22" points="104.76 155.53 119.73 146.89 119.73 164.17 104.76 155.53"/><polygon class="cls-9" points="89.8 146.89 104.76 138.25 104.76 155.53 89.8 146.89"/><polygon class="cls-18" points="89.8 164.17 89.8 146.89 104.76 155.53 89.8 164.17"/><polygon class="cls-7" points="74.83 172.81 89.8 164.17 89.8 181.46 74.83 172.81"/><polygon class="cls-20" points="74.83 190.09 74.83 172.81 89.8 181.46 74.83 190.09"/><polygon class="cls-24" points="208.5 146.3 194.56 138.25 194.56 155.53 208.5 147.49 208.5 146.3"/><polygon class="cls-26" points="179.59 146.89 194.56 138.25 194.56 155.53 179.59 146.89"/><polygon class="cls-27" points="164.63 155.53 164.63 138.25 179.59 146.89 164.63 155.53"/><polygon class="cls-28" points="149.66 146.89 164.63 138.25 164.63 155.53 149.66 146.89"/><polygon class="cls-25" points="134.69 155.53 134.69 138.25 149.66 146.89 134.69 155.53"/><polygon class="cls-22" points="119.73 146.89 134.69 138.25 134.69 155.53 119.73 146.89"/><polygon class="cls-7" points="104.76 155.53 104.76 138.25 119.73 146.89 104.76 155.53"/><polygon class="cls-7" points="89.8 146.89 89.8 129.61 104.76 138.25 89.8 146.89"/><polygon class="cls-11" points="74.83 155.53 89.8 146.89 89.8 164.17 74.83 155.53"/><polygon class="cls-13" points="74.83 172.81 74.83 155.53 89.8 164.17 74.83 172.81"/><polygon class="cls-12" points="59.86 181.46 74.83 172.81 74.83 190.09 59.86 181.46"/><polygon class="cls-16" points="59.86 198.74 59.86 181.46 74.83 190.09 59.86 198.74"/><polygon class="cls-24" points="208.5 130.21 194.56 138.25 208.5 146.3 208.5 130.21"/><polygon class="cls-29" points="179.59 146.89 179.59 129.61 194.56 138.25 179.59 146.89"/><polygon class="cls-30" points="164.63 138.25 179.59 129.61 179.59 146.89 164.63 138.25"/><polygon class="cls-28" points="149.66 146.89 149.66 129.61 164.63 138.25 149.66 146.89"/><polygon class="cls-27" points="134.69 138.25 149.66 129.61 149.66 146.89 134.69 138.25"/><polygon class="cls-7" points="119.73 146.89 119.73 129.61 134.69 138.25 119.73 146.89"/><polygon class="cls-7" points="104.76 138.25 119.73 129.61 119.73 146.89 104.76 138.25"/><polygon class="cls-20" points="74.83 138.25 89.8 129.61 89.8 146.89 74.83 138.25"/><polygon class="cls-16" points="74.83 155.53 74.83 138.25 89.8 146.89 74.83 155.53"/><polygon class="cls-20" points="59.86 164.17 74.83 155.53 74.83 172.81 59.86 164.17"/><polygon class="cls-12" points="59.86 181.46 59.86 164.17 74.83 172.81 59.86 181.46"/><polygon class="cls-31" points="44.9 190.09 59.86 181.46 59.86 198.74 44.9 190.09"/><polygon class="cls-26" points="208.5 129.01 194.56 120.97 194.56 138.25 208.5 130.21 208.5 129.01"/><polygon class="cls-32" points="179.59 129.61 194.56 120.97 194.56 138.25 179.59 129.61"/><polygon class="cls-33" points="164.63 138.25 164.63 120.97 179.59 129.61 164.63 138.25"/><polygon class="cls-34" points="149.66 129.61 164.63 120.97 164.63 138.25 149.66 129.61"/><polygon class="cls-34" points="134.69 138.25 134.69 120.97 149.66 129.61 134.69 138.25"/><polygon class="cls-12" points="119.73 129.61 134.69 120.97 134.69 138.25 119.73 129.61"/><polygon class="cls-10" points="104.76 138.25 104.76 120.97 119.73 129.61 104.76 138.25"/><polygon class="cls-19" points="89.8 129.61 104.76 120.97 104.76 138.25 89.8 129.61"/><polygon class="cls-25" points="74.83 120.97 89.8 112.33 89.8 129.61 74.83 120.97"/><polygon class="cls-12" points="74.83 138.25 74.83 120.97 89.8 129.61 74.83 138.25"/><polygon class="cls-20" points="59.86 146.89 74.83 138.25 74.83 155.53 59.86 146.89"/><polygon class="cls-20" points="59.86 164.17 59.86 146.89 74.83 155.53 59.86 164.17"/><polygon class="cls-19" points="44.9 172.81 59.86 164.17 59.86 181.46 44.9 172.81"/><polygon class="cls-19" points="44.9 190.09 44.9 172.81 59.86 181.46 44.9 190.09"/><polygon class="cls-35" points="208.5 112.92 194.56 120.97 208.5 129.01 208.5 112.92"/><polygon class="cls-30" points="179.59 129.61 179.59 112.33 194.56 120.97 179.59 129.61"/><polygon class="cls-36" points="164.63 120.97 179.59 112.33 179.59 129.61 164.63 120.97"/><polygon class="cls-17" points="149.66 129.61 149.66 112.33 164.63 120.97 149.66 129.61"/><polygon class="cls-28" points="134.69 120.97 149.66 112.33 149.66 129.61 134.69 120.97"/><polygon class="cls-37" points="119.73 129.61 119.73 112.33 134.69 120.97 119.73 129.61"/><polygon class="cls-12" points="104.76 120.97 119.73 112.33 119.73 129.61 104.76 120.97"/><polygon class="cls-18" points="89.8 129.61 89.8 112.33 104.76 120.97 89.8 129.61"/><polygon class="cls-10" points="74.83 120.97 74.83 103.69 89.8 112.33 74.83 120.97"/><polygon class="cls-23" points="59.86 129.61 74.83 120.97 74.83 138.25 59.86 129.61"/><polygon class="cls-12" points="59.86 146.89 59.86 129.61 74.83 138.25 59.86 146.89"/><polygon class="cls-9" points="44.9 155.53 59.86 146.89 59.86 164.17 44.9 155.53"/><polygon class="cls-25" points="44.9 172.81 44.9 155.53 59.86 164.17 44.9 172.81"/><polygon class="cls-9" points="29.93 181.46 44.9 172.81 44.9 190.09 29.93 181.46"/><polygon class="cls-9" points="29.93 198.74 29.93 181.46 44.9 190.09 29.93 198.74"/><polygon class="cls-32" points="208.5 111.73 194.56 103.69 194.56 120.97 208.5 112.92 208.5 111.73"/><polygon class="cls-38" points="179.59 112.33 194.56 103.69 194.56 120.97 179.59 112.33"/><polygon class="cls-38" points="164.63 120.97 164.63 103.69 179.59 112.33 164.63 120.97"/><polygon class="cls-36" points="149.66 112.33 164.63 103.69 164.63 120.97 149.66 112.33"/><polygon class="cls-39" points="134.69 120.97 134.69 103.69 149.66 112.33 134.69 120.97"/><polygon class="cls-33" points="119.73 112.33 134.69 103.69 134.69 120.97 119.73 112.33"/><polygon class="cls-7" points="104.76 120.97 104.76 103.69 119.73 112.33 104.76 120.97"/><polygon class="cls-13" points="89.8 112.33 104.76 103.69 104.76 120.97 89.8 112.33"/><polygon class="cls-22" points="59.86 112.33 74.83 103.69 74.83 120.97 59.86 112.33"/><polygon class="cls-22" points="59.86 129.61 59.86 112.33 74.83 120.97 59.86 129.61"/><polygon class="cls-20" points="44.9 138.25 59.86 129.61 59.86 146.89 44.9 138.25"/><polygon class="cls-27" points="44.9 155.53 44.9 138.25 59.86 146.89 44.9 155.53"/><polygon class="cls-22" points="29.93 164.17 44.9 155.53 44.9 172.81 29.93 164.17"/><polygon class="cls-10" points="29.93 181.46 29.93 164.17 44.9 172.81 29.93 181.46"/><polygon class="cls-10" points="14.97 190.09 29.93 181.46 29.93 198.74 14.97 190.09"/><polygon class="cls-8" points="208.5 95.64 194.56 103.69 208.5 111.73 208.5 95.64"/><polygon class="cls-32" points="179.59 112.33 179.59 95.05 194.56 103.69 179.59 112.33"/><polygon class="cls-32" points="164.63 103.69 179.59 95.05 179.59 112.33 164.63 103.69"/><polygon class="cls-17" points="149.66 112.33 149.66 95.05 164.63 103.69 149.66 112.33"/><polygon class="cls-17" points="134.69 103.69 149.66 95.05 149.66 112.33 134.69 103.69"/><polygon class="cls-30" points="119.73 112.33 119.73 95.05 134.69 103.69 119.73 112.33"/><polygon class="cls-40" points="104.76 103.69 119.73 95.05 119.73 112.33 104.76 103.69"/><polygon class="cls-9" points="89.8 112.33 89.8 95.05 104.76 103.69 89.8 112.33"/><polygon class="cls-20" points="74.83 103.69 89.8 95.05 89.8 112.33 74.83 103.69"/><polygon class="cls-20" points="59.86 95.05 74.83 86.41 74.83 103.69 59.86 95.05"/><polygon class="cls-13" points="59.86 112.33 59.86 95.05 74.83 103.69 59.86 112.33"/><polygon class="cls-16" points="44.9 120.97 59.86 112.33 59.86 129.61 44.9 120.97"/><polygon class="cls-10" points="44.9 138.25 44.9 120.97 59.86 129.61 44.9 138.25"/><polygon class="cls-37" points="29.93 146.89 44.9 138.25 44.9 155.53 29.93 146.89"/><polygon class="cls-31" points="29.93 164.17 29.93 146.89 44.9 155.53 29.93 164.17"/><polygon class="cls-13" points="14.97 172.81 29.93 164.17 29.93 181.46 14.97 172.81"/><polygon class="cls-13" points="14.97 190.09 14.97 172.81 29.93 181.46 14.97 190.09"/><polygon class="cls-41" points="208.5 94.45 194.56 86.41 194.56 103.69 208.5 95.64 208.5 94.45"/><polygon class="cls-24" points="179.59 95.05 194.56 86.41 194.56 103.69 179.59 95.05"/><polygon class="cls-32" points="164.63 103.69 164.63 86.41 179.59 95.05 164.63 103.69"/><polygon class="cls-17" points="149.66 95.05 164.63 86.41 164.63 103.69 149.66 95.05"/><polygon class="cls-39" points="134.69 103.69 134.69 86.41 149.66 95.05 134.69 103.69"/><polygon class="cls-36" points="119.73 95.05 134.69 86.41 134.69 103.69 119.73 95.05"/><polygon class="cls-42" points="104.76 103.69 104.76 86.41 119.73 95.05 104.76 103.69"/><polygon class="cls-38" points="89.8 95.05 104.76 86.41 104.76 103.69 89.8 95.05"/><polygon class="cls-12" points="74.83 103.69 74.83 86.41 89.8 95.05 74.83 103.69"/><polygon class="cls-12" points="59.86 95.05 59.86 77.77 74.83 86.41 59.86 95.05"/><polygon class="cls-16" points="44.9 103.69 59.86 95.05 59.86 112.33 44.9 103.69"/><polygon class="cls-27" points="44.9 120.97 44.9 103.69 59.86 112.33 44.9 120.97"/><polygon class="cls-39" points="29.93 129.61 44.9 120.97 44.9 138.25 29.93 129.61"/><polygon class="cls-19" points="29.93 146.89 29.93 129.61 44.9 138.25 29.93 146.89"/><polygon class="cls-9" points="14.97 155.53 29.93 146.89 29.93 164.17 14.97 155.53"/><polygon class="cls-13" points="14.97 172.81 14.97 155.53 29.93 164.17 14.97 172.81"/><polygon class="cls-10" points="0 181.46 14.97 172.81 14.97 190.09 0 181.46"/><polygon class="cls-32" points="208.5 78.36 194.56 86.41 208.5 94.45 208.5 78.36"/><polygon class="cls-36" points="179.59 95.05 179.59 77.77 194.56 86.41 179.59 95.05"/><polygon class="cls-40" points="164.63 86.41 179.59 77.77 179.59 95.05 164.63 86.41"/><polygon class="cls-32" points="149.66 95.05 149.66 77.77 164.63 86.41 149.66 95.05"/><polygon class="cls-32" points="134.69 86.41 149.66 77.77 149.66 95.05 134.69 86.41"/><polygon class="cls-26" points="119.73 95.05 119.73 77.77 134.69 86.41 119.73 95.05"/><polygon class="cls-42" points="104.76 86.41 119.73 77.77 119.73 95.05 104.76 86.41"/><polygon class="cls-32" points="89.8 95.05 89.8 77.77 104.76 86.41 89.8 95.05"/><polygon class="cls-21" points="74.83 86.41 89.8 77.77 89.8 95.05 74.83 86.41"/><polygon class="cls-13" points="44.9 86.41 59.86 77.77 59.86 95.05 44.9 86.41"/><polygon class="cls-9" points="44.9 103.69 44.9 86.41 59.86 95.05 44.9 103.69"/><polygon class="cls-26" points="29.93 112.33 44.9 103.69 44.9 120.97 29.93 112.33"/><polygon class="cls-39" points="29.93 129.61 29.93 112.33 44.9 120.97 29.93 129.61"/><polygon class="cls-19" points="14.97 138.25 29.93 129.61 29.93 146.89 14.97 138.25"/><polygon class="cls-25" points="14.97 155.53 14.97 138.25 29.93 146.89 14.97 155.53"/><polygon class="cls-10" points="0 164.17 14.97 155.53 14.97 172.81 0 164.17"/><polygon class="cls-10" points="0 181.46 0 164.17 14.97 172.81 0 181.46"/><polygon class="cls-32" points="208.5 77.17 194.56 69.13 194.56 86.41 208.5 78.36 208.5 77.17"/><polygon class="cls-43" points="179.59 77.77 194.56 69.13 194.56 86.41 179.59 77.77"/><polygon class="cls-43" points="164.63 86.41 164.63 69.13 179.59 77.77 164.63 86.41"/><polygon class="cls-30" points="149.66 77.77 164.63 69.13 164.63 86.41 149.66 77.77"/><polygon class="cls-44" points="134.69 86.41 134.69 69.13 149.66 77.77 134.69 86.41"/><polygon class="cls-24" points="119.73 77.77 134.69 69.13 134.69 86.41 119.73 77.77"/><polygon class="cls-45" points="104.76 86.41 104.76 69.13 119.73 77.77 104.76 86.41"/><polygon class="cls-46" points="89.8 77.77 104.76 69.13 104.76 86.41 89.8 77.77"/><polygon class="cls-47" points="74.83 86.41 74.83 69.13 89.8 77.77 74.83 86.41"/><polygon class="cls-25" points="59.86 77.77 74.83 69.13 74.83 86.41 59.86 77.77"/><polygon class="cls-28" points="44.9 69.13 59.86 60.48 59.86 77.77 44.9 69.13"/><polygon class="cls-25" points="44.9 86.41 44.9 69.13 59.86 77.77 44.9 86.41"/><polygon class="cls-43" points="29.93 95.05 44.9 86.41 44.9 103.69 29.93 95.05"/><polygon class="cls-29" points="29.93 112.33 29.93 95.05 44.9 103.69 29.93 112.33"/><polygon class="cls-31" points="14.97 120.97 29.93 112.33 29.93 129.61 14.97 120.97"/><polygon class="cls-22" points="14.97 138.25 14.97 120.97 29.93 129.61 14.97 138.25"/><polygon class="cls-22" points="0 146.89 14.97 138.25 14.97 155.53 0 146.89"/><polygon class="cls-22" points="0 164.17 0 146.89 14.97 155.53 0 164.17"/><polygon class="cls-32" points="208.5 61.08 194.56 69.13 208.5 77.17 208.5 61.08"/><polygon class="cls-14" points="179.59 77.77 179.59 60.48 194.56 69.13 179.59 77.77"/><polygon class="cls-30" points="164.63 69.13 179.59 60.48 179.59 77.77 164.63 69.13"/><polygon class="cls-21" points="149.66 77.77 149.66 60.48 164.63 69.13 149.66 77.77"/><polygon class="cls-14" points="134.69 69.13 149.66 60.48 149.66 77.77 134.69 69.13"/><polygon class="cls-48" points="119.73 77.77 119.73 60.48 134.69 69.13 119.73 77.77"/><polygon class="cls-41" points="104.76 69.13 119.73 60.48 119.73 77.77 104.76 69.13"/><polygon class="cls-42" points="89.8 77.77 89.8 60.48 104.76 69.13 89.8 77.77"/><polygon class="cls-36" points="74.83 69.13 89.8 60.48 89.8 77.77 74.83 69.13"/><polygon class="cls-39" points="59.86 77.77 59.86 60.48 74.83 69.13 59.86 77.77"/><polygon class="cls-33" points="44.9 69.13 44.9 51.84 59.86 60.48 44.9 69.13"/><polygon class="cls-30" points="29.93 77.77 44.9 69.13 44.9 86.41 29.93 77.77"/><polygon class="cls-15" points="29.93 95.05 29.93 77.77 44.9 86.41 29.93 95.05"/><polygon class="cls-21" points="14.97 103.69 29.93 95.05 29.93 112.33 14.97 103.69"/><polygon class="cls-31" points="14.97 120.97 14.97 103.69 29.93 112.33 14.97 120.97"/><polygon class="cls-22" points="0 129.61 14.97 120.97 14.97 138.25 0 129.61"/><polygon class="cls-22" points="0 146.89 0 129.61 14.97 138.25 0 146.89"/><polygon class="cls-21" points="208.5 59.89 194.56 51.84 194.56 69.13 208.5 61.08 208.5 59.89"/><polygon class="cls-47" points="179.59 60.48 194.56 51.84 194.56 69.13 179.59 60.48"/><polygon class="cls-41" points="164.63 69.13 164.63 51.84 179.59 60.48 164.63 69.13"/><polygon class="cls-8" points="149.66 60.48 164.63 51.84 164.63 69.13 149.66 60.48"/><polygon class="cls-44" points="134.69 69.13 134.69 51.84 149.66 60.48 134.69 69.13"/><polygon class="cls-24" points="119.73 60.48 134.69 51.84 134.69 69.13 119.73 60.48"/><polygon class="cls-24" points="104.76 69.13 104.76 51.84 119.73 60.48 104.76 69.13"/><polygon class="cls-8" points="89.8 60.48 104.76 51.84 104.76 69.13 89.8 60.48"/><polygon class="cls-32" points="74.83 69.13 74.83 51.84 89.8 60.48 74.83 69.13"/><polygon class="cls-35" points="59.86 60.48 74.83 51.84 74.83 69.13 59.86 60.48"/><polygon class="cls-8" points="29.93 60.48 44.9 51.84 44.9 69.13 29.93 60.48"/><polygon class="cls-29" points="29.93 77.77 29.93 60.48 44.9 69.13 29.93 77.77"/><polygon class="cls-35" points="14.97 86.41 29.93 77.77 29.93 95.05 14.97 86.41"/><polygon class="cls-28" points="14.97 103.69 14.97 86.41 29.93 95.05 14.97 103.69"/><polygon class="cls-22" points="0 112.33 14.97 103.69 14.97 120.97 0 112.33"/><polygon class="cls-31" points="0 129.61 0 112.33 14.97 120.97 0 129.61"/><polygon class="cls-43" points="208.5 43.8 194.56 51.84 208.5 59.89 208.5 43.8"/><polygon class="cls-24" points="179.59 60.48 179.59 43.2 194.56 51.84 179.59 60.48"/><polygon class="cls-41" points="164.63 51.84 179.59 43.2 179.59 60.48 164.63 51.84"/><polygon class="cls-14" points="149.66 60.48 149.66 43.2 164.63 51.84 149.66 60.48"/><polygon class="cls-42" points="134.69 51.84 149.66 43.2 149.66 60.48 134.69 51.84"/><polygon class="cls-30" points="119.73 60.48 119.73 43.2 134.69 51.84 119.73 60.48"/><polygon class="cls-38" points="104.76 51.84 119.73 43.2 119.73 60.48 104.76 51.84"/><polygon class="cls-36" points="89.8 60.48 89.8 43.2 104.76 51.84 89.8 60.48"/><polygon class="cls-36" points="74.83 51.84 89.8 43.2 89.8 60.48 74.83 51.84"/><polygon class="cls-38" points="59.86 60.48 59.86 43.2 74.83 51.84 59.86 60.48"/><polygon class="cls-38" points="44.9 51.84 59.86 43.2 59.86 60.48 44.9 51.84"/><polygon class="cls-42" points="29.93 43.2 44.9 34.56 44.9 51.84 29.93 43.2"/><polygon class="cls-26" points="29.93 60.48 29.93 43.2 44.9 51.84 29.93 60.48"/><polygon class="cls-32" points="14.97 69.13 29.93 60.48 29.93 77.77 14.97 69.13"/><polygon class="cls-29" points="14.97 86.41 14.97 69.13 29.93 77.77 14.97 86.41"/><polygon class="cls-31" points="0 95.05 14.97 86.41 14.97 103.69 0 95.05"/><polygon class="cls-18" points="0 112.33 0 95.05 14.97 103.69 0 112.33"/><polygon class="cls-36" points="208.5 42.61 194.56 34.56 194.56 51.84 208.5 43.8 208.5 42.61"/><polygon class="cls-41" points="179.59 43.2 194.56 34.56 194.56 51.84 179.59 43.2"/><polygon class="cls-49" points="164.63 51.84 164.63 34.56 179.59 43.2 164.63 51.84"/><polygon class="cls-46" points="149.66 43.2 164.63 34.56 164.63 51.84 149.66 43.2"/><polygon class="cls-33" points="134.69 51.84 134.69 34.56 149.66 43.2 134.69 51.84"/><polygon class="cls-33" points="119.73 43.2 134.69 34.56 134.69 51.84 119.73 43.2"/><polygon class="cls-43" points="104.76 51.84 104.76 34.56 119.73 43.2 104.76 51.84"/><polygon class="cls-39" points="89.8 43.2 104.76 34.56 104.76 51.84 89.8 43.2"/><polygon class="cls-36" points="74.83 51.84 74.83 34.56 89.8 43.2 74.83 51.84"/><polygon class="cls-32" points="59.86 43.2 74.83 34.56 74.83 51.84 59.86 43.2"/><polygon class="cls-46" points="44.9 51.84 44.9 34.56 59.86 43.2 44.9 51.84"/><polygon class="cls-33" points="29.93 43.2 29.93 25.92 44.9 34.56 29.93 43.2"/><polygon class="cls-17" points="14.97 51.84 29.93 43.2 29.93 60.48 14.97 51.84"/><polygon class="cls-34" points="14.97 69.13 14.97 51.84 29.93 60.48 14.97 69.13"/><polygon class="cls-19" points="0 77.77 14.97 69.13 14.97 86.41 0 77.77"/><polygon class="cls-34" points="0 95.05 0 77.77 14.97 86.41 0 95.05"/><polygon class="cls-37" points="208.5 26.52 194.56 34.56 208.5 42.61 208.5 26.52"/><polygon class="cls-48" points="179.59 43.2 179.59 25.92 194.56 34.56 179.59 43.2"/><polygon class="cls-50" points="164.63 34.56 179.59 25.92 179.59 43.2 164.63 34.56"/><polygon class="cls-8" points="149.66 43.2 149.66 25.92 164.63 34.56 149.66 43.2"/><polygon class="cls-35" points="134.69 34.56 149.66 25.92 149.66 43.2 134.69 34.56"/><polygon class="cls-44" points="119.73 43.2 119.73 25.92 134.69 34.56 119.73 43.2"/><polygon class="cls-45" points="104.76 34.56 119.73 25.92 119.73 43.2 104.76 34.56"/><polygon class="cls-32" points="89.8 43.2 89.8 25.92 104.76 34.56 89.8 43.2"/><polygon class="cls-17" points="74.83 34.56 89.8 25.92 89.8 43.2 74.83 34.56"/><polygon class="cls-33" points="59.86 43.2 59.86 25.92 74.83 34.56 59.86 43.2"/><polygon class="cls-8" points="44.9 34.56 59.86 25.92 59.86 43.2 44.9 34.56"/><polygon class="cls-30" points="14.97 34.56 29.93 25.92 29.93 43.2 14.97 34.56"/><polygon class="cls-33" points="14.97 51.84 14.97 34.56 29.93 43.2 14.97 51.84"/><polygon class="cls-37" points="0 60.48 14.97 51.84 14.97 69.13 0 60.48"/><polygon class="cls-15" points="0 77.77 0 60.48 14.97 69.13 0 77.77"/><polygon class="cls-30" points="208.5 25.33 194.56 17.28 194.56 34.56 208.5 26.52 208.5 25.33"/><polygon class="cls-26" points="179.59 25.92 194.56 17.28 194.56 34.56 179.59 25.92"/><polygon class="cls-48" points="164.63 34.56 164.63 17.28 179.59 25.92 164.63 34.56"/><polygon class="cls-50" points="149.66 25.92 164.63 17.28 164.63 34.56 149.66 25.92"/><polygon class="cls-48" points="134.69 34.56 134.69 17.28 149.66 25.92 134.69 34.56"/><polygon class="cls-50" points="119.73 25.92 134.69 17.28 134.69 34.56 119.73 25.92"/><polygon class="cls-46" points="104.76 34.56 104.76 17.28 119.73 25.92 104.76 34.56"/><polygon class="cls-42" points="89.8 25.92 104.76 17.28 104.76 34.56 89.8 25.92"/><polygon class="cls-21" points="74.83 34.56 74.83 17.28 89.8 25.92 74.83 34.56"/><polygon class="cls-37" points="59.86 25.92 74.83 17.28 74.83 34.56 59.86 25.92"/><polygon class="cls-24" points="44.9 34.56 44.9 17.28 59.86 25.92 44.9 34.56"/><polygon class="cls-36" points="29.93 25.92 44.9 17.28 44.9 34.56 29.93 25.92"/><polygon class="cls-47" points="14.97 17.28 29.93 8.64 29.93 25.92 14.97 17.28"/><polygon class="cls-36" points="14.97 34.56 14.97 17.28 29.93 25.92 14.97 34.56"/><polygon class="cls-33" points="0 43.2 14.97 34.56 14.97 51.84 0 43.2"/><polygon class="cls-28" points="0 60.48 0 43.2 14.97 51.84 0 60.48"/><polygon class="cls-36" points="208.5 9.24 194.56 17.28 208.5 25.33 208.5 9.24"/><polygon class="cls-41" points="179.59 25.92 179.59 8.64 194.56 17.28 179.59 25.92"/><polygon class="cls-46" points="164.63 17.28 179.59 8.64 179.59 25.92 164.63 17.28"/><polygon class="cls-51" points="149.66 25.92 149.66 8.64 164.63 17.28 149.66 25.92"/><polygon class="cls-49" points="134.69 17.28 149.66 8.64 149.66 25.92 134.69 17.28"/><polygon class="cls-51" points="119.73 25.92 119.73 8.64 134.69 17.28 119.73 25.92"/><polygon class="cls-49" points="104.76 17.28 119.73 8.64 119.73 25.92 104.76 17.28"/><polygon class="cls-47" points="89.8 25.92 89.8 8.64 104.76 17.28 89.8 25.92"/><polygon class="cls-34" points="74.83 17.28 89.8 8.64 89.8 25.92 74.83 17.28"/><polygon class="cls-13" points="59.86 25.92 59.86 8.64 74.83 17.28 59.86 25.92"/><polygon class="cls-13" points="44.9 17.28 59.86 8.64 59.86 25.92 44.9 17.28"/><polygon class="cls-36" points="29.93 25.92 29.93 8.64 44.9 17.28 29.93 25.92"/><polygon class="cls-47" points="14.97 17.28 14.97 0 29.93 8.64 14.97 17.28"/><polygon class="cls-40" points="0 25.92 14.97 17.28 14.97 34.56 0 25.92"/><polygon class="cls-38" points="0 43.2 0 25.92 14.97 34.56 0 43.2"/><polygon class="cls-36" points="208.5 8.04 194.56 0 194.56 17.28 208.5 9.24 208.5 8.04"/><polygon class="cls-42" points="179.59 8.64 194.56 0 194.56 17.28 179.59 8.64"/><polygon class="cls-8" points="164.63 17.28 164.63 0 179.59 8.64 164.63 17.28"/><polygon class="cls-45" points="149.66 8.64 164.63 0 164.63 17.28 149.66 8.64"/><polygon class="cls-49" points="134.69 17.28 134.69 0 149.66 8.64 134.69 17.28"/><polygon class="cls-8" points="119.73 8.64 134.69 0 134.69 17.28 119.73 8.64"/><polygon class="cls-51" points="104.76 17.28 104.76 0 119.73 8.64 104.76 17.28"/><polygon class="cls-36" points="89.8 8.64 104.76 0 104.76 17.28 89.8 8.64"/><polygon class="cls-27" points="74.83 17.28 74.83 0 89.8 8.64 74.83 17.28"/><polygon class="cls-37" points="59.86 8.64 74.83 0 74.83 17.28 59.86 8.64"/><polygon class="cls-13" points="44.9 17.28 44.9 0 59.86 8.64 44.9 17.28"/><polygon class="cls-47" points="29.93 8.64 44.9 0 44.9 17.28 29.93 8.64"/><polygon class="cls-47" points="0 8.64 14.97 0 14.97 17.28 0 8.64"/><polygon class="cls-33" points="0 25.92 0 8.64 14.97 17.28 0 25.92"/></g></g></g></g></g></svg>