<svg xmlns="http://www.w3.org/2000/svg" xmlns:xlink="http://www.w3.org/1999/xlink" viewBox="0 0 765.45 529.97"><defs><style>.cls-1{fill:none;}.cls-2{isolation:isolate;}.cls-3{clip-path:url(#clip-path);}.cls-4{fill:#001526;}.cls-5{fill:#a3b8d7;}.cls-6{mix-blend-mode:color-burn;}.cls-7{fill:silver;}.cls-8{fill:#8c8c8c;}.cls-9{fill:#b9b9b9;}.cls-10{fill:#bbb;}.cls-11{fill:#bcbcbc;}.cls-12{fill:#c2c2c2;}.cls-13{fill:#c1c1c1;}.cls-14{fill:gray;}.cls-15{fill:#adadad;}.cls-16{fill:#bebebe;}.cls-17{fill:#a3a3a3;}.cls-18{fill:#b3b3b3;}.cls-19{fill:#b4b4b4;}.cls-20{fill:#c5c5c5;}.cls-21{fill:#a8a8a8;}.cls-22{fill:#b6b6b6;}.cls-23{fill:#c6c6c6;}.cls-24{fill:#8a8a8a;}.cls-25{fill:#b1b1b1;}.cls-26{fill:#919191;}.cls-27{fill:#aeaeae;}.cls-28{fill:#a9a9a9;}.cls-29{fill:#949494;}.cls-30{fill:#9e9e9e;}.cls-31{fill:#b7b7b7;}.cls-32{fill:#989898;}.cls-33{fill:#a2a2a2;}.cls-34{fill:#aaa;}.cls-35{fill:#939393;}.cls-36{fill:#9d9d9d;}.cls-37{fill:#afafaf;}.cls-38{fill:#9a9a9a;}.cls-39{fill:#a4a4a4;}.cls-40{fill:#999;}.cls-41{fill:#818181;}.cls-42{fill:#909090;}.cls-43{fill:#a5a5a5;}.cls-44{fill:#858585;}.cls-45{fill:#868686;}.cls-46{fill:#8b8b8b;}.cls-47{fill:#9f9f9f;}.cls-48{fill:#7d7d7d;}.cls-49{fill:#787878;}.cls-50{fill:#727272;}.cls-51{fill:#7c7c7c;}</style><clipPath id="clip-path" transform="translate(52.07 24.74)"><rect class="cls-1" width="660.84" height="480.01" transform="translate(660.84 480.01) rotate(180)"/></clipPath></defs><g class="cls-2"><g id="Layer_2" data-name="Layer 2"><g id="Layer_1-2" data-name="Layer 1"><g class="cls-3"><rect class="cls-4" x="40.36" y="15.52" width="684.93" height="497.51"/><rect class="cls-5" x="40.36" y="15.52" width="684.93" height="497.51"/><g class="cls-6"><polygon class="cls-7" points="439.56 529.97 439.56 483.89 494.51 506.93 439.56 529.97"/><polygon class="cls-8" points="765.45 485.47 714.29 506.93 765.45 528.38 765.45 485.47"/><polygon class="cls-9" points="659.35 529.97 659.35 483.89 714.29 506.93 659.35 529.97"/><polygon class="cls-10" points="604.4 506.93 659.35 483.89 659.35 529.97 604.4 506.93"/><polygon class="cls-11" points="549.46 529.97 549.46 483.89 604.4 506.93 549.46 529.97"/><polygon class="cls-12" points="494.51 506.93 549.46 483.89 549.46 529.97 494.51 506.93"/><polygon class="cls-13" points="384.62 506.93 439.56 483.89 439.56 529.97 384.62 506.93"/><polygon class="cls-14" points="765.45 482.3 714.29 460.84 714.29 506.93 765.45 485.47 765.45 482.3"/><polygon class="cls-15" points="659.35 483.89 714.29 460.84 714.29 506.93 659.35 483.89"/><polygon class="cls-11" points="604.4 506.93 604.4 460.84 659.35 483.89 604.4 506.93"/><polygon class="cls-11" points="549.46 483.89 604.4 460.84 604.4 506.93 549.46 483.89"/><polygon class="cls-10" points="494.51 506.93 494.51 460.84 549.46 483.89 494.51 506.93"/><polygon class="cls-9" points="439.56 483.89 494.51 460.84 494.51 506.93 439.56 483.89"/><polygon class="cls-10" points="384.62 460.84 439.56 437.8 439.56 483.89 384.62 460.84"/><polygon class="cls-16" points="384.62 506.93 384.62 460.84 439.56 483.89 384.62 506.93"/><polygon class="cls-14" points="765.45 439.39 714.29 460.84 765.45 482.3 765.45 439.39"/><polygon class="cls-17" points="659.35 483.89 659.35 437.8 714.29 460.84 659.35 483.89"/><polygon class="cls-11" points="604.4 460.84 659.35 437.8 659.35 483.89 604.4 460.84"/><polygon class="cls-9" points="549.46 483.89 549.46 437.8 604.4 460.84 549.46 483.89"/><polygon class="cls-18" points="494.51 460.84 549.46 437.8 549.46 483.89 494.51 460.84"/><polygon class="cls-9" points="439.56 483.89 439.56 437.8 494.51 460.84 439.56 483.89"/><polygon class="cls-19" points="384.62 460.84 384.62 414.76 439.56 437.8 384.62 460.84"/><polygon class="cls-13" points="329.67 483.89 384.62 460.84 384.62 506.93 329.67 483.89"/><polygon class="cls-20" points="329.67 529.97 329.67 483.89 384.62 506.93 329.67 529.97"/><polygon class="cls-8" points="765.45 436.21 714.29 414.76 714.29 460.84 765.45 439.39 765.45 436.21"/><polygon class="cls-21" points="659.35 437.8 714.29 414.76 714.29 460.84 659.35 437.8"/><polygon class="cls-10" points="604.4 460.84 604.4 414.76 659.35 437.8 604.4 460.84"/><polygon class="cls-10" points="549.46 437.8 604.4 414.76 604.4 460.84 549.46 437.8"/><polygon class="cls-9" points="494.51 460.84 494.51 414.76 549.46 437.8 494.51 460.84"/><polygon class="cls-9" points="439.56 437.8 494.51 414.76 494.51 460.84 439.56 437.8"/><polygon class="cls-22" points="329.67 437.8 384.62 414.76 384.62 460.84 329.67 437.8"/><polygon class="cls-10" points="329.67 483.89 329.67 437.8 384.62 460.84 329.67 483.89"/><polygon class="cls-23" points="274.73 506.93 329.67 483.89 329.67 529.97 274.73 506.93"/><polygon class="cls-24" points="765.45 393.31 714.29 414.76 765.45 436.21 765.45 393.31"/><polygon class="cls-25" points="659.35 437.8 659.35 391.72 714.29 414.76 659.35 437.8"/><polygon class="cls-15" points="604.4 414.76 659.35 391.72 659.35 437.8 604.4 414.76"/><polygon class="cls-10" points="549.46 437.8 549.46 391.72 604.4 414.76 549.46 437.8"/><polygon class="cls-10" points="494.51 414.76 549.46 391.72 549.46 437.8 494.51 414.76"/><polygon class="cls-16" points="439.56 437.8 439.56 391.72 494.51 414.76 439.56 437.8"/><polygon class="cls-22" points="384.62 414.76 439.56 391.72 439.56 437.8 384.62 414.76"/><polygon class="cls-9" points="329.67 391.72 384.62 368.68 384.62 414.76 329.67 391.72"/><polygon class="cls-18" points="329.67 437.8 329.67 391.72 384.62 414.76 329.67 437.8"/><polygon class="cls-7" points="274.73 460.84 329.67 437.8 329.67 483.89 274.73 460.84"/><polygon class="cls-20" points="274.73 506.93 274.73 460.84 329.67 483.89 274.73 506.93"/><polygon class="cls-24" points="765.45 390.13 714.29 368.68 714.29 414.76 765.45 393.31 765.45 390.13"/><polygon class="cls-26" points="659.35 391.72 714.29 368.68 714.29 414.76 659.35 391.72"/><polygon class="cls-27" points="604.4 414.76 604.4 368.68 659.35 391.72 604.4 414.76"/><polygon class="cls-28" points="549.46 391.72 604.4 368.68 604.4 414.76 549.46 391.72"/><polygon class="cls-25" points="494.51 414.76 494.51 368.68 549.46 391.72 494.51 414.76"/><polygon class="cls-22" points="439.56 391.72 494.51 368.68 494.51 414.76 439.56 391.72"/><polygon class="cls-7" points="384.62 414.76 384.62 368.68 439.56 391.72 384.62 414.76"/><polygon class="cls-7" points="329.67 391.72 329.67 345.63 384.62 368.68 329.67 391.72"/><polygon class="cls-11" points="274.73 414.76 329.67 391.72 329.67 437.8 274.73 414.76"/><polygon class="cls-13" points="274.73 460.84 274.73 414.76 329.67 437.8 274.73 460.84"/><polygon class="cls-12" points="219.78 483.89 274.73 460.84 274.73 506.93 219.78 483.89"/><polygon class="cls-16" points="219.78 529.97 219.78 483.89 274.73 506.93 219.78 529.97"/><polygon class="cls-24" points="765.45 347.22 714.29 368.68 765.45 390.13 765.45 347.22"/><polygon class="cls-29" points="659.35 391.72 659.35 345.63 714.29 368.68 659.35 391.72"/><polygon class="cls-30" points="604.4 368.68 659.35 345.63 659.35 391.72 604.4 368.68"/><polygon class="cls-28" points="549.46 391.72 549.46 345.63 604.4 368.68 549.46 391.72"/><polygon class="cls-27" points="494.51 368.68 549.46 345.63 549.46 391.72 494.51 368.68"/><polygon class="cls-7" points="439.56 391.72 439.56 345.63 494.51 368.68 439.56 391.72"/><polygon class="cls-7" points="384.62 368.68 439.56 345.63 439.56 391.72 384.62 368.68"/><polygon class="cls-20" points="274.73 368.68 329.67 345.63 329.67 391.72 274.73 368.68"/><polygon class="cls-16" points="274.73 414.76 274.73 368.68 329.67 391.72 274.73 414.76"/><polygon class="cls-20" points="219.78 437.8 274.73 414.76 274.73 460.84 219.78 437.8"/><polygon class="cls-12" points="219.78 483.89 219.78 437.8 274.73 460.84 219.78 483.89"/><polygon class="cls-31" points="164.84 506.93 219.78 483.89 219.78 529.97 164.84 506.93"/><polygon class="cls-26" points="765.45 344.05 714.29 322.59 714.29 368.68 765.45 347.22 765.45 344.05"/><polygon class="cls-32" points="659.35 345.63 714.29 322.59 714.29 368.68 659.35 345.63"/><polygon class="cls-33" points="604.4 368.68 604.4 322.59 659.35 345.63 604.4 368.68"/><polygon class="cls-34" points="549.46 345.63 604.4 322.59 604.4 368.68 549.46 345.63"/><polygon class="cls-34" points="494.51 368.68 494.51 322.59 549.46 345.63 494.51 368.68"/><polygon class="cls-12" points="439.56 345.63 494.51 322.59 494.51 368.68 439.56 345.63"/><polygon class="cls-10" points="384.62 368.68 384.62 322.59 439.56 345.63 384.62 368.68"/><polygon class="cls-19" points="329.67 345.63 384.62 322.59 384.62 368.68 329.67 345.63"/><polygon class="cls-25" points="274.73 322.59 329.67 299.55 329.67 345.63 274.73 322.59"/><polygon class="cls-12" points="274.73 368.68 274.73 322.59 329.67 345.63 274.73 368.68"/><polygon class="cls-20" points="219.78 391.72 274.73 368.68 274.73 414.76 219.78 391.72"/><polygon class="cls-20" points="219.78 437.8 219.78 391.72 274.73 414.76 219.78 437.8"/><polygon class="cls-19" points="164.84 460.84 219.78 437.8 219.78 483.89 164.84 460.84"/><polygon class="cls-19" points="164.84 506.93 164.84 460.84 219.78 483.89 164.84 506.93"/><polygon class="cls-35" points="765.45 301.14 714.29 322.59 765.45 344.05 765.45 301.14"/><polygon class="cls-30" points="659.35 345.63 659.35 299.55 714.29 322.59 659.35 345.63"/><polygon class="cls-36" points="604.4 322.59 659.35 299.55 659.35 345.63 604.4 322.59"/><polygon class="cls-17" points="549.46 345.63 549.46 299.55 604.4 322.59 549.46 345.63"/><polygon class="cls-28" points="494.51 322.59 549.46 299.55 549.46 345.63 494.51 322.59"/><polygon class="cls-37" points="439.56 345.63 439.56 299.55 494.51 322.59 439.56 345.63"/><polygon class="cls-12" points="384.62 322.59 439.56 299.55 439.56 345.63 384.62 322.59"/><polygon class="cls-18" points="329.67 345.63 329.67 299.55 384.62 322.59 329.67 345.63"/><polygon class="cls-10" points="274.73 322.59 274.73 276.51 329.67 299.55 274.73 322.59"/><polygon class="cls-23" points="219.78 345.63 274.73 322.59 274.73 368.68 219.78 345.63"/><polygon class="cls-12" points="219.78 391.72 219.78 345.63 274.73 368.68 219.78 391.72"/><polygon class="cls-9" points="164.84 414.76 219.78 391.72 219.78 437.8 164.84 414.76"/><polygon class="cls-25" points="164.84 460.84 164.84 414.76 219.78 437.8 164.84 460.84"/><polygon class="cls-9" points="109.89 483.89 164.84 460.84 164.84 506.93 109.89 483.89"/><polygon class="cls-9" points="109.89 529.97 109.89 483.89 164.84 506.93 109.89 529.97"/><polygon class="cls-32" points="765.45 297.96 714.29 276.51 714.29 322.59 765.45 301.14 765.45 297.96"/><polygon class="cls-38" points="659.35 299.55 714.29 276.51 714.29 322.59 659.35 299.55"/><polygon class="cls-38" points="604.4 322.59 604.4 276.51 659.35 299.55 604.4 322.59"/><polygon class="cls-36" points="549.46 299.55 604.4 276.51 604.4 322.59 549.46 299.55"/><polygon class="cls-39" points="494.51 322.59 494.51 276.51 549.46 299.55 494.51 322.59"/><polygon class="cls-33" points="439.56 299.55 494.51 276.51 494.51 322.59 439.56 299.55"/><polygon class="cls-7" points="384.62 322.59 384.62 276.51 439.56 299.55 384.62 322.59"/><polygon class="cls-13" points="329.67 299.55 384.62 276.51 384.62 322.59 329.67 299.55"/><polygon class="cls-22" points="219.78 299.55 274.73 276.51 274.73 322.59 219.78 299.55"/><polygon class="cls-22" points="219.78 345.63 219.78 299.55 274.73 322.59 219.78 345.63"/><polygon class="cls-20" points="164.84 368.68 219.78 345.63 219.78 391.72 164.84 368.68"/><polygon class="cls-27" points="164.84 414.76 164.84 368.68 219.78 391.72 164.84 414.76"/><polygon class="cls-22" points="109.89 437.8 164.84 414.76 164.84 460.84 109.89 437.8"/><polygon class="cls-10" points="109.89 483.89 109.89 437.8 164.84 460.84 109.89 483.89"/><polygon class="cls-10" points="54.95 506.93 109.89 483.89 109.89 529.97 54.95 506.93"/><polygon class="cls-8" points="765.45 255.05 714.29 276.51 765.45 297.96 765.45 255.05"/><polygon class="cls-32" points="659.35 299.55 659.35 253.47 714.29 276.51 659.35 299.55"/><polygon class="cls-32" points="604.4 276.51 659.35 253.47 659.35 299.55 604.4 276.51"/><polygon class="cls-17" points="549.46 299.55 549.46 253.47 604.4 276.51 549.46 299.55"/><polygon class="cls-17" points="494.51 276.51 549.46 253.47 549.46 299.55 494.51 276.51"/><polygon class="cls-30" points="439.56 299.55 439.56 253.47 494.51 276.51 439.56 299.55"/><polygon class="cls-40" points="384.62 276.51 439.56 253.47 439.56 299.55 384.62 276.51"/><polygon class="cls-9" points="329.67 299.55 329.67 253.47 384.62 276.51 329.67 299.55"/><polygon class="cls-20" points="274.73 276.51 329.67 253.47 329.67 299.55 274.73 276.51"/><polygon class="cls-20" points="219.78 253.47 274.73 230.42 274.73 276.51 219.78 253.47"/><polygon class="cls-13" points="219.78 299.55 219.78 253.47 274.73 276.51 219.78 299.55"/><polygon class="cls-16" points="164.84 322.59 219.78 299.55 219.78 345.63 164.84 322.59"/><polygon class="cls-10" points="164.84 368.68 164.84 322.59 219.78 345.63 164.84 368.68"/><polygon class="cls-37" points="109.89 391.72 164.84 368.68 164.84 414.76 109.89 391.72"/><polygon class="cls-31" points="109.89 437.8 109.89 391.72 164.84 414.76 109.89 437.8"/><polygon class="cls-13" points="54.95 460.84 109.89 437.8 109.89 483.89 54.95 460.84"/><polygon class="cls-13" points="54.95 506.93 54.95 460.84 109.89 483.89 54.95 506.93"/><polygon class="cls-41" points="765.45 251.88 714.29 230.42 714.29 276.51 765.45 255.05 765.45 251.88"/><polygon class="cls-24" points="659.35 253.47 714.29 230.42 714.29 276.51 659.35 253.47"/><polygon class="cls-32" points="604.4 276.51 604.4 230.42 659.35 253.47 604.4 276.51"/><polygon class="cls-17" points="549.46 253.47 604.4 230.42 604.4 276.51 549.46 253.47"/><polygon class="cls-39" points="494.51 276.51 494.51 230.42 549.46 253.47 494.51 276.51"/><polygon class="cls-36" points="439.56 253.47 494.51 230.42 494.51 276.51 439.56 253.47"/><polygon class="cls-42" points="384.62 276.51 384.62 230.42 439.56 253.47 384.62 276.51"/><polygon class="cls-38" points="329.67 253.47 384.62 230.42 384.62 276.51 329.67 253.47"/><polygon class="cls-12" points="274.73 276.51 274.73 230.42 329.67 253.47 274.73 276.51"/><polygon class="cls-12" points="219.78 253.47 219.78 207.38 274.73 230.42 219.78 253.47"/><polygon class="cls-16" points="164.84 276.51 219.78 253.47 219.78 299.55 164.84 276.51"/><polygon class="cls-27" points="164.84 322.59 164.84 276.51 219.78 299.55 164.84 322.59"/><polygon class="cls-39" points="109.89 345.63 164.84 322.59 164.84 368.68 109.89 345.63"/><polygon class="cls-19" points="109.89 391.72 109.89 345.63 164.84 368.68 109.89 391.72"/><polygon class="cls-9" points="54.95 414.76 109.89 391.72 109.89 437.8 54.95 414.76"/><polygon class="cls-13" points="54.95 460.84 54.95 414.76 109.89 437.8 54.95 460.84"/><polygon class="cls-10" points="0 483.89 54.95 460.84 54.95 506.93 0 483.89"/><polygon class="cls-32" points="765.45 208.97 714.29 230.42 765.45 251.88 765.45 208.97"/><polygon class="cls-36" points="659.35 253.47 659.35 207.38 714.29 230.42 659.35 253.47"/><polygon class="cls-40" points="604.4 230.42 659.35 207.38 659.35 253.47 604.4 230.42"/><polygon class="cls-32" points="549.46 253.47 549.46 207.38 604.4 230.42 549.46 253.47"/><polygon class="cls-32" points="494.51 230.42 549.46 207.38 549.46 253.47 494.51 230.42"/><polygon class="cls-26" points="439.56 253.47 439.56 207.38 494.51 230.42 439.56 253.47"/><polygon class="cls-42" points="384.62 230.42 439.56 207.38 439.56 253.47 384.62 230.42"/><polygon class="cls-32" points="329.67 253.47 329.67 207.38 384.62 230.42 329.67 253.47"/><polygon class="cls-21" points="274.73 230.42 329.67 207.38 329.67 253.47 274.73 230.42"/><polygon class="cls-13" points="164.84 230.42 219.78 207.38 219.78 253.47 164.84 230.42"/><polygon class="cls-9" points="164.84 276.51 164.84 230.42 219.78 253.47 164.84 276.51"/><polygon class="cls-26" points="109.89 299.55 164.84 276.51 164.84 322.59 109.89 299.55"/><polygon class="cls-39" points="109.89 345.63 109.89 299.55 164.84 322.59 109.89 345.63"/><polygon class="cls-19" points="54.95 368.68 109.89 345.63 109.89 391.72 54.95 368.68"/><polygon class="cls-25" points="54.95 414.76 54.95 368.68 109.89 391.72 54.95 414.76"/><polygon class="cls-10" points="0 437.8 54.95 414.76 54.95 460.84 0 437.8"/><polygon class="cls-10" points="0 483.89 0 437.8 54.95 460.84 0 483.89"/><polygon class="cls-32" points="765.45 205.79 714.29 184.34 714.29 230.42 765.45 208.97 765.45 205.79"/><polygon class="cls-43" points="659.35 207.38 714.29 184.34 714.29 230.42 659.35 207.38"/><polygon class="cls-43" points="604.4 230.42 604.4 184.34 659.35 207.38 604.4 230.42"/><polygon class="cls-30" points="549.46 207.38 604.4 184.34 604.4 230.42 549.46 207.38"/><polygon class="cls-44" points="494.51 230.42 494.51 184.34 549.46 207.38 494.51 230.42"/><polygon class="cls-24" points="439.56 207.38 494.51 184.34 494.51 230.42 439.56 207.38"/><polygon class="cls-45" points="384.62 230.42 384.62 184.34 439.56 207.38 384.62 230.42"/><polygon class="cls-46" points="329.67 207.38 384.62 184.34 384.62 230.42 329.67 207.38"/><polygon class="cls-47" points="274.73 230.42 274.73 184.34 329.67 207.38 274.73 230.42"/><polygon class="cls-25" points="219.78 207.38 274.73 184.34 274.73 230.42 219.78 207.38"/><polygon class="cls-28" points="164.84 184.34 219.78 161.3 219.78 207.38 164.84 184.34"/><polygon class="cls-25" points="164.84 230.42 164.84 184.34 219.78 207.38 164.84 230.42"/><polygon class="cls-43" points="109.89 253.47 164.84 230.42 164.84 276.51 109.89 253.47"/><polygon class="cls-29" points="109.89 299.55 109.89 253.47 164.84 276.51 109.89 299.55"/><polygon class="cls-31" points="54.95 322.59 109.89 299.55 109.89 345.63 54.95 322.59"/><polygon class="cls-22" points="54.95 368.68 54.95 322.59 109.89 345.63 54.95 368.68"/><polygon class="cls-22" points="0 391.72 54.95 368.68 54.95 414.76 0 391.72"/><polygon class="cls-22" points="0 437.8 0 391.72 54.95 414.76 0 437.8"/><polygon class="cls-32" points="765.45 162.88 714.29 184.34 765.45 205.79 765.45 162.88"/><polygon class="cls-14" points="659.35 207.38 659.35 161.3 714.29 184.34 659.35 207.38"/><polygon class="cls-30" points="604.4 184.34 659.35 161.3 659.35 207.38 604.4 184.34"/><polygon class="cls-21" points="549.46 207.38 549.46 161.3 604.4 184.34 549.46 207.38"/><polygon class="cls-14" points="494.51 184.34 549.46 161.3 549.46 207.38 494.51 184.34"/><polygon class="cls-48" points="439.56 207.38 439.56 161.3 494.51 184.34 439.56 207.38"/><polygon class="cls-41" points="384.62 184.34 439.56 161.3 439.56 207.38 384.62 184.34"/><polygon class="cls-42" points="329.67 207.38 329.67 161.3 384.62 184.34 329.67 207.38"/><polygon class="cls-36" points="274.73 184.34 329.67 161.3 329.67 207.38 274.73 184.34"/><polygon class="cls-39" points="219.78 207.38 219.78 161.3 274.73 184.34 219.78 207.38"/><polygon class="cls-33" points="164.84 184.34 164.84 138.25 219.78 161.3 164.84 184.34"/><polygon class="cls-30" points="109.89 207.38 164.84 184.34 164.84 230.42 109.89 207.38"/><polygon class="cls-15" points="109.89 253.47 109.89 207.38 164.84 230.42 109.89 253.47"/><polygon class="cls-21" points="54.95 276.51 109.89 253.47 109.89 299.55 54.95 276.51"/><polygon class="cls-31" points="54.95 322.59 54.95 276.51 109.89 299.55 54.95 322.59"/><polygon class="cls-22" points="0 345.63 54.95 322.59 54.95 368.68 0 345.63"/><polygon class="cls-22" points="0 391.72 0 345.63 54.95 368.68 0 391.72"/><polygon class="cls-21" points="765.45 159.71 714.29 138.25 714.29 184.34 765.45 162.88 765.45 159.71"/><polygon class="cls-47" points="659.35 161.3 714.29 138.25 714.29 184.34 659.35 161.3"/><polygon class="cls-41" points="604.4 184.34 604.4 138.25 659.35 161.3 604.4 184.34"/><polygon class="cls-8" points="549.46 161.3 604.4 138.25 604.4 184.34 549.46 161.3"/><polygon class="cls-44" points="494.51 184.34 494.51 138.25 549.46 161.3 494.51 184.34"/><polygon class="cls-24" points="439.56 161.3 494.51 138.25 494.51 184.34 439.56 161.3"/><polygon class="cls-24" points="384.62 184.34 384.62 138.25 439.56 161.3 384.62 184.34"/><polygon class="cls-8" points="329.67 161.3 384.62 138.25 384.62 184.34 329.67 161.3"/><polygon class="cls-32" points="274.73 184.34 274.73 138.25 329.67 161.3 274.73 184.34"/><polygon class="cls-35" points="219.78 161.3 274.73 138.25 274.73 184.34 219.78 161.3"/><polygon class="cls-8" points="109.89 161.3 164.84 138.25 164.84 184.34 109.89 161.3"/><polygon class="cls-29" points="109.89 207.38 109.89 161.3 164.84 184.34 109.89 207.38"/><polygon class="cls-35" points="54.95 230.42 109.89 207.38 109.89 253.47 54.95 230.42"/><polygon class="cls-28" points="54.95 276.51 54.95 230.42 109.89 253.47 54.95 276.51"/><polygon class="cls-22" points="0 299.55 54.95 276.51 54.95 322.59 0 299.55"/><polygon class="cls-31" points="0 345.63 0 299.55 54.95 322.59 0 345.63"/><polygon class="cls-43" points="765.45 116.8 714.29 138.25 765.45 159.71 765.45 116.8"/><polygon class="cls-24" points="659.35 161.3 659.35 115.21 714.29 138.25 659.35 161.3"/><polygon class="cls-41" points="604.4 138.25 659.35 115.21 659.35 161.3 604.4 138.25"/><polygon class="cls-14" points="549.46 161.3 549.46 115.21 604.4 138.25 549.46 161.3"/><polygon class="cls-42" points="494.51 138.25 549.46 115.21 549.46 161.3 494.51 138.25"/><polygon class="cls-30" points="439.56 161.3 439.56 115.21 494.51 138.25 439.56 161.3"/><polygon class="cls-38" points="384.62 138.25 439.56 115.21 439.56 161.3 384.62 138.25"/><polygon class="cls-36" points="329.67 161.3 329.67 115.21 384.62 138.25 329.67 161.3"/><polygon class="cls-36" points="274.73 138.25 329.67 115.21 329.67 161.3 274.73 138.25"/><polygon class="cls-38" points="219.78 161.3 219.78 115.21 274.73 138.25 219.78 161.3"/><polygon class="cls-38" points="164.84 138.25 219.78 115.21 219.78 161.3 164.84 138.25"/><polygon class="cls-42" points="109.89 115.21 164.84 92.17 164.84 138.25 109.89 115.21"/><polygon class="cls-26" points="109.89 161.3 109.89 115.21 164.84 138.25 109.89 161.3"/><polygon class="cls-32" points="54.95 184.34 109.89 161.3 109.89 207.38 54.95 184.34"/><polygon class="cls-29" points="54.95 230.42 54.95 184.34 109.89 207.38 54.95 230.42"/><polygon class="cls-31" points="0 253.47 54.95 230.42 54.95 276.51 0 253.47"/><polygon class="cls-18" points="0 299.55 0 253.47 54.95 276.51 0 299.55"/><polygon class="cls-36" points="765.45 113.62 714.29 92.17 714.29 138.25 765.45 116.8 765.45 113.62"/><polygon class="cls-41" points="659.35 115.21 714.29 92.17 714.29 138.25 659.35 115.21"/><polygon class="cls-49" points="604.4 138.25 604.4 92.17 659.35 115.21 604.4 138.25"/><polygon class="cls-46" points="549.46 115.21 604.4 92.17 604.4 138.25 549.46 115.21"/><polygon class="cls-33" points="494.51 138.25 494.51 92.17 549.46 115.21 494.51 138.25"/><polygon class="cls-33" points="439.56 115.21 494.51 92.17 494.51 138.25 439.56 115.21"/><polygon class="cls-43" points="384.62 138.25 384.62 92.17 439.56 115.21 384.62 138.25"/><polygon class="cls-39" points="329.67 115.21 384.62 92.17 384.62 138.25 329.67 115.21"/><polygon class="cls-36" points="274.73 138.25 274.73 92.17 329.67 115.21 274.73 138.25"/><polygon class="cls-32" points="219.78 115.21 274.73 92.17 274.73 138.25 219.78 115.21"/><polygon class="cls-46" points="164.84 138.25 164.84 92.17 219.78 115.21 164.84 138.25"/><polygon class="cls-33" points="109.89 115.21 109.89 69.13 164.84 92.17 109.89 115.21"/><polygon class="cls-17" points="54.95 138.25 109.89 115.21 109.89 161.3 54.95 138.25"/><polygon class="cls-34" points="54.95 184.34 54.95 138.25 109.89 161.3 54.95 184.34"/><polygon class="cls-19" points="0 207.38 54.95 184.34 54.95 230.42 0 207.38"/><polygon class="cls-34" points="0 253.47 0 207.38 54.95 230.42 0 253.47"/><polygon class="cls-37" points="765.45 70.71 714.29 92.17 765.45 113.62 765.45 70.71"/><polygon class="cls-48" points="659.35 115.21 659.35 69.13 714.29 92.17 659.35 115.21"/><polygon class="cls-50" points="604.4 92.17 659.35 69.13 659.35 115.21 604.4 92.17"/><polygon class="cls-8" points="549.46 115.21 549.46 69.13 604.4 92.17 549.46 115.21"/><polygon class="cls-35" points="494.51 92.17 549.46 69.13 549.46 115.21 494.51 92.17"/><polygon class="cls-44" points="439.56 115.21 439.56 69.13 494.51 92.17 439.56 115.21"/><polygon class="cls-45" points="384.62 92.17 439.56 69.13 439.56 115.21 384.62 92.17"/><polygon class="cls-32" points="329.67 115.21 329.67 69.13 384.62 92.17 329.67 115.21"/><polygon class="cls-17" points="274.73 92.17 329.67 69.13 329.67 115.21 274.73 92.17"/><polygon class="cls-33" points="219.78 115.21 219.78 69.13 274.73 92.17 219.78 115.21"/><polygon class="cls-8" points="164.84 92.17 219.78 69.13 219.78 115.21 164.84 92.17"/><polygon class="cls-30" points="54.95 92.17 109.89 69.13 109.89 115.21 54.95 92.17"/><polygon class="cls-33" points="54.95 138.25 54.95 92.17 109.89 115.21 54.95 138.25"/><polygon class="cls-37" points="0 161.3 54.95 138.25 54.95 184.34 0 161.3"/><polygon class="cls-15" points="0 207.38 0 161.3 54.95 184.34 0 207.38"/><polygon class="cls-30" points="765.45 67.54 714.29 46.08 714.29 92.17 765.45 70.71 765.45 67.54"/><polygon class="cls-26" points="659.35 69.13 714.29 46.08 714.29 92.17 659.35 69.13"/><polygon class="cls-48" points="604.4 92.17 604.4 46.08 659.35 69.13 604.4 92.17"/><polygon class="cls-50" points="549.46 69.13 604.4 46.08 604.4 92.17 549.46 69.13"/><polygon class="cls-48" points="494.51 92.17 494.51 46.08 549.46 69.13 494.51 92.17"/><polygon class="cls-50" points="439.56 69.13 494.51 46.08 494.51 92.17 439.56 69.13"/><polygon class="cls-46" points="384.62 92.17 384.62 46.08 439.56 69.13 384.62 92.17"/><polygon class="cls-42" points="329.67 69.13 384.62 46.08 384.62 92.17 329.67 69.13"/><polygon class="cls-21" points="274.73 92.17 274.73 46.08 329.67 69.13 274.73 92.17"/><polygon class="cls-37" points="219.78 69.13 274.73 46.08 274.73 92.17 219.78 69.13"/><polygon class="cls-24" points="164.84 92.17 164.84 46.08 219.78 69.13 164.84 92.17"/><polygon class="cls-36" points="109.89 69.13 164.84 46.08 164.84 92.17 109.89 69.13"/><polygon class="cls-47" points="54.95 46.08 109.89 23.04 109.89 69.13 54.95 46.08"/><polygon class="cls-36" points="54.95 92.17 54.95 46.08 109.89 69.13 54.95 92.17"/><polygon class="cls-33" points="0 115.21 54.95 92.17 54.95 138.25 0 115.21"/><polygon class="cls-28" points="0 161.3 0 115.21 54.95 138.25 0 161.3"/><polygon class="cls-36" points="765.45 24.63 714.29 46.08 765.45 67.54 765.45 24.63"/><polygon class="cls-41" points="659.35 69.13 659.35 23.04 714.29 46.08 659.35 69.13"/><polygon class="cls-46" points="604.4 46.08 659.35 23.04 659.35 69.13 604.4 46.08"/><polygon class="cls-51" points="549.46 69.13 549.46 23.04 604.4 46.08 549.46 69.13"/><polygon class="cls-49" points="494.51 46.08 549.46 23.04 549.46 69.13 494.51 46.08"/><polygon class="cls-51" points="439.56 69.13 439.56 23.04 494.51 46.08 439.56 69.13"/><polygon class="cls-49" points="384.62 46.08 439.56 23.04 439.56 69.13 384.62 46.08"/><polygon class="cls-47" points="329.67 69.13 329.67 23.04 384.62 46.08 329.67 69.13"/><polygon class="cls-34" points="274.73 46.08 329.67 23.04 329.67 69.13 274.73 46.08"/><polygon class="cls-13" points="219.78 69.13 219.78 23.04 274.73 46.08 219.78 69.13"/><polygon class="cls-13" points="164.84 46.08 219.78 23.04 219.78 69.13 164.84 46.08"/><polygon class="cls-36" points="109.89 69.13 109.89 23.04 164.84 46.08 109.89 69.13"/><polygon class="cls-47" points="54.95 46.08 54.95 0 109.89 23.04 54.95 46.08"/><polygon class="cls-40" points="0 69.13 54.95 46.08 54.95 92.17 0 69.13"/><polygon class="cls-38" points="0 115.21 0 69.13 54.95 92.17 0 115.21"/><polygon class="cls-36" points="765.45 21.45 714.29 0 714.29 46.08 765.45 24.63 765.45 21.45"/><polygon class="cls-42" points="659.35 23.04 714.29 0 714.29 46.08 659.35 23.04"/><polygon class="cls-8" points="604.4 46.08 604.4 0 659.35 23.04 604.4 46.08"/><polygon class="cls-45" points="549.46 23.04 604.4 0 604.4 46.08 549.46 23.04"/><polygon class="cls-49" points="494.51 46.08 494.51 0 549.46 23.04 494.51 46.08"/><polygon class="cls-8" points="439.56 23.04 494.51 0 494.51 46.08 439.56 23.04"/><polygon class="cls-51" points="384.62 46.08 384.62 0 439.56 23.04 384.62 46.08"/><polygon class="cls-36" points="329.67 23.04 384.62 0 384.62 46.08 329.67 23.04"/><polygon class="cls-27" points="274.73 46.08 274.73 0 329.67 23.04 274.73 46.08"/><polygon class="cls-37" points="219.78 23.04 274.73 0 274.73 46.08 219.78 23.04"/><polygon class="cls-13" points="164.84 46.08 164.84 0 219.78 23.04 164.84 46.08"/><polygon class="cls-47" points="109.89 23.04 164.84 0 164.84 46.08 109.89 23.04"/><polygon class="cls-47" points="0 23.04 54.95 0 54.95 46.08 0 23.04"/><polygon class="cls-33" points="0 69.13 0 23.04 54.95 46.08 0 69.13"/></g></g></g></g></g></svg>